<svg xmlns="http://www.w3.org/2000/svg" xmlns:xlink="http://www.w3.org/1999/xlink" version="1.1" width="375pt" height="375pt" viewBox="0 0 375 375">
<defs>
<clipPath id="clip_0">
<path transform="matrix(.24,0,0,.24,0,0)" d="M0 0H1562.5V1562.5H0Z" fill-rule="evenodd"/>
</clipPath>
<clipPath id="clip_1">
<path transform="matrix(.24,0,0,.24,0,0)" d="M0 0H1562.5V1562.5H0Z" fill-rule="evenodd"/>
</clipPath>
<clipPath id="clip_2">
<path transform="matrix(.24,0,0,.24,0,0)" d="M0 0H1562.5V1562.5H0Z" fill-rule="evenodd"/>
</clipPath>
<clipPath id="clip_3">
<path transform="matrix(.24,0,0,.24,0,0)" d="M0 0H1562.5V1593.75H0Z"/>
</clipPath>
<clipPath id="clip_4">
<path transform="matrix(.24,0,0,.24,0,0)" d="M0 0H1562.5V1562.5H0Z"/>
</clipPath>
<clipPath id="clip_5">
<path transform="matrix(.24,0,0,.24,0,0)" d="M0 0H1562.5V1562.5H0Z"/>
</clipPath>
<clipPath id="clip_6">
<path transform="matrix(.24,0,0,.24,0,0)" d="M296.66059 646.6907H546.7914V896.8215H296.66059Z"/>
</clipPath>
<clipPath id="clip_7">
<path transform="matrix(.24,0,0,.24,0,0)" d="M421.72599 646.6907C352.65428 646.6907 296.66059 702.6844 296.66059 771.7561 296.66059 840.82778 352.65428 896.8215 421.72599 896.8215 490.79768 896.8215 546.7914 840.82778 546.7914 771.7561 546.7914 702.6844 490.79768 646.6907 421.72599 646.6907Z"/>
</clipPath>
<clipPath id="clip_8">
<path transform="matrix(.24,0,0,.24,0,0)" d="M0 0H1562.5V1593.75H0Z"/>
</clipPath>
<clipPath id="clip_9">
<path transform="matrix(.24,0,0,.24,0,0)" d="M0 0H1562.5V1562.5H0Z"/>
</clipPath>
<clipPath id="clip_10">
<path transform="matrix(.24,0,0,.24,0,0)" d="M0 0H1562.5V1562.5H0Z"/>
</clipPath>
<clipPath id="clip_11">
<path transform="matrix(.24,0,0,.24,0,0)" d="M647.63418 646.6907H897.76498V896.8215H647.63418Z"/>
</clipPath>
<clipPath id="clip_12">
<path transform="matrix(.24,0,0,.24,0,0)" d="M772.6996 646.6907C703.62789 646.6907 647.63418 702.6844 647.63418 771.7561 647.63418 840.82778 703.62789 896.8215 772.6996 896.8215 841.77127 896.8215 897.76498 840.82778 897.76498 771.7561 897.76498 702.6844 841.77127 646.6907 772.6996 646.6907Z"/>
</clipPath>
<clipPath id="clip_13">
<path transform="matrix(.24,0,0,.24,0,0)" d="M0 0H1562.5V1593.75H0Z"/>
</clipPath>
<clipPath id="clip_14">
<path transform="matrix(.24,0,0,.24,0,0)" d="M0 0H1562.5V1562.5H0Z"/>
</clipPath>
<clipPath id="clip_15">
<path transform="matrix(.24,0,0,.24,0,0)" d="M0 0H1562.5V1562.5H0Z"/>
</clipPath>
<clipPath id="clip_16">
<path transform="matrix(.24,0,0,.24,0,0)" d="M624.1154 944.78628 517.7511 891.98287 549.71109 827.6045 656.0754 880.40786 624.1154 944.78628Z"/>
</clipPath>
<clipPath id="clip_17">
<path transform="matrix(.24,0,0,.24,0,0)" d="M624.1154 944.78628 517.7511 891.98287 549.71109 827.6045 656.0754 880.40786 624.1154 944.78628Z"/>
</clipPath>
<clipPath id="clip_18">
<path transform="matrix(.24,0,0,.24,0,0)" d="M0 0H1562.5V1593.75H0Z"/>
</clipPath>
<clipPath id="clip_19">
<path transform="matrix(.24,0,0,.24,0,0)" d="M0 0H1562.5V1562.5H0Z"/>
</clipPath>
<clipPath id="clip_20">
<path transform="matrix(.24,0,0,.24,0,0)" d="M0 0H1562.5V1562.5H0Z"/>
</clipPath>
<clipPath id="clip_21">
<path transform="matrix(.24,0,0,.24,0,0)" d="M329.62477 684.3816H504.37379V859.1306H329.62477Z"/>
</clipPath>
<clipPath id="clip_22">
<path transform="matrix(.24,0,0,.24,0,0)" d="M416.99928 684.3816C368.74366 684.3816 329.62477 723.5005 329.62477 771.7561 329.62477 820.0117 368.74366 859.1306 416.99928 859.1306 465.25489 859.1306 504.37379 820.0117 504.37379 771.7561 504.37379 723.5005 465.25489 684.3816 416.99928 684.3816Z"/>
</clipPath>
<clipPath id="clip_23">
<path transform="matrix(.24,0,0,.24,0,0)" d="M0 0H1562.5V1593.75H0Z"/>
</clipPath>
<clipPath id="clip_24">
<path transform="matrix(.24,0,0,.24,0,0)" d="M0 0H1562.5V1562.5H0Z"/>
</clipPath>
<clipPath id="clip_25">
<path transform="matrix(.24,0,0,.24,0,0)" d="M0 0H1562.5V1562.5H0Z"/>
</clipPath>
<clipPath id="clip_26">
<path transform="matrix(.24,0,0,.24,0,0)" d="M685.70907 684.3816H860.45809V859.1306H685.70907Z"/>
</clipPath>
<clipPath id="clip_27">
<path transform="matrix(.24,0,0,.24,0,0)" d="M773.08358 684.3816C724.82797 684.3816 685.70907 723.5005 685.70907 771.7561 685.70907 820.0117 724.82797 859.1306 773.08358 859.1306 821.3392 859.1306 860.45809 820.0117 860.45809 771.7561 860.45809 723.5005 821.3392 684.3816 773.08358 684.3816Z"/>
</clipPath>
</defs>
<g clip-path="url(#clip_0)">
<path transform="matrix(.75,0,0,.75,0,0)" d="M0 0H500V500H0Z" fill="#ffffff"/>
</g>
<g clip-path="url(#clip_1)">
<path transform="matrix(.75,0,0,.75,0,0)" d="M0 0H500V500H0Z" fill="#ffffff"/>
</g>
<g clip-path="url(#clip_2)">
<text fill="#e16f28" xml:space="preserve" transform="matrix(1.609167 0 0 1.609167 -102.94402 151.81999)" font-size="44.08" font-family="LeagueSpartan" font-weight="bold"><tspan y="39" x="72.09375">B</tspan></text>
<text fill="#e16f28" xml:space="preserve" transform="matrix(1.609167 0 0 1.609167 -102.94402 151.81999)" font-size="44.08" font-family="LeagueSpartan" font-weight="bold"><tspan y="39" x="103.65625 117.89389 132.13153 146.36917 160.60681 174.84445 189.08209">       </tspan></text>
<text fill="#e16f28" xml:space="preserve" transform="matrix(1.609167 0 0 1.609167 -102.94402 151.81999)" font-size="44.08" font-family="LeagueSpartan" font-weight="bold"><tspan y="39" x="203.32813 230.52474 258.29438">FEY</tspan></text>
</g>
<g clip-path="url(#clip_3)">
<g clip-path="url(#clip_4)">
<g clip-path="url(#clip_5)">
<g clip-path="url(#clip_6)">
<g clip-path="url(#clip_7)">
<path transform="matrix(.23449762,0,0,.23449762,71.19854,155.20577)" d="M0 0H256V256H0Z" fill="#e16f28"/>
</g>
</g>
</g>
</g>
</g>
<g clip-path="url(#clip_8)">
<g clip-path="url(#clip_9)">
<g clip-path="url(#clip_10)">
<g clip-path="url(#clip_11)">
<g clip-path="url(#clip_12)">
<path transform="matrix(.23449762,0,0,.23449762,155.43219,155.20577)" d="M0 0H256V256H0Z" fill="#e16f28"/>
</g>
</g>
</g>
</g>
</g>
<g clip-path="url(#clip_13)">
<g clip-path="url(#clip_14)">
<g clip-path="url(#clip_15)">
<g clip-path="url(#clip_16)">
<g clip-path="url(#clip_17)">
<path transform="matrix(-.19971894,-.09914831,.09914831,-.19971894,150.26743,233.68334)" d="M41 71.3C41.5 70.5 42.1 69.600009 42.6 68.8 43.3 67.9 44.1 67 44.8 66.100009L45 66C45.9 65 46.8 63.9 47.9 62.7 48.800004 61.7 49.9 60.5 51 59.5 52 58.5 53.1 57.6 54.1 56.8L55.3 55.8C55.8 55.399999 56.399999 54.899999 57.1 54.5 57.699998 54.1 58.5 53.6 59.3 53.1 59.7 52.899999 60 52.699998 60.399999 52.5 60.8 52.3 61.199998 52.1 61.6 51.8 62.399999 51.3 63.199998 50.899999 63.899999 50.5 65.5 49.8 67.2 49.1 68.799999 48.5 69.99999 48.1 71.2 47.7 72.299999 47.4 73.1 47.2 73.799999 47 74.6 46.7 75 46.600004 75.299999 46.5 75.7 46.3 76.299999 46.1 76.899997 45.899999 77.5 45.7 78.3 45.5 79.1 45.3 79.8 45.100004L80.4 44.9 81 44.7C81.8 44.5 82.6 44.3 83.5 44.100004 84.2 43.9 85 43.800004 85.7 43.7H85.799999C86.7 43.600004 87.799999 43.4 88.799999 43.3 89.2 43.3 89.7 43.2 90.1 43.2 90.6 43.2 91.2 43.100004 91.7 43.100004 93.6 42.9 95.7 42.800004 98.1 42.800004H98.5C100.3 42.800004 102.2 42.800004 104.2 42.9 104.799999 42.9 105.399997 43 106 43 106.4 43 106.7 43.1 107.1 43.1H107.5C108.2 43.1 108.8 43.199998 109.5 43.199998 110.1 43.299997 110.8 43.399999 111.4 43.499998 111.8 43.599996 112.3 43.599996 112.700008 43.699998 113.200008 43.799997 113.700008 43.799997 114.100009 43.899999 114.700008 43.999998 115.3 43.999998 115.90001 44.1 116.80001 44.199998 117.70001 44.399999 118.600009 44.6L119.40001 44.8 119.90001 44.899999C120.90001 45.1 122.00001 45.3 123.100009 45.6 124.100009 45.8 125.100009 46.1 126.3 46.399999 127.100009 46.6 127.8 46.899999 128.5 47.1 128.8 47.199998 129.1 47.3 129.4 47.399999 130.4 47.8 131.5 48.1 132.5 48.399999 133.1 48.6 133.8 48.699998 134.4 48.899999L134.79999 48.999998C134.99999 49.099996 135.19998 49.099996 135.4 49.099996 136.5 49.099996 137.59999 48.299997 138 47.299997 138.2 47.099996 138.4 46.799997 138.5 46.499998 138.9 45.499998 139.3 44.399999 139.7 43.199998 139.9 42.699998 140.09999 42.199998 140.2 41.799997L140.4 41.399995C140.59999 40.999994 140.7 40.599996 140.79999 40.199995 140.9 39.79999 141.09999 39.399995 141.29999 38.899995 141.69998 37.999994 141.4 36.899995 140.59999 36.099996L140.29999 35.699995C139.99999 35.29999 139.59999 35.099996 139.09999 34.899995L138.79999 34.699995C138.29999 34.499994 137.79999 34.199995 137.29999 33.999994 136.79999 33.79999 136.19998 33.59999 135.79999 33.399995 135.4 33.299997 134.9 33.099996 134.49999 32.899995L133.89998 32.699995C133.39998 32.499994 132.89998 32.399995 132.49999 32.29999 132.29999 32.199995 132.09999 32.199995 131.89998 32.09999 131.19998 31.89999 130.49999 31.699992 129.79998 31.49999 128.89998 31.199992 127.89997 30.89999 126.99997 30.699992 126.19997 30.49999 125.39997 30.299992 124.59997 30.09999 123.59997 29.89999 122.59997 29.59999 121.59997 29.299992 119.69997 28.699992 117.69997 28.499993 115.799968 28.199992L115.19997 28.09999C114.69997 27.99999 114.09997 27.99999 113.59997 27.89999 112.299968 27.69999 110.89997 27.49999 109.49997 27.39999H109.19997C107.59997 27.29999 105.89996 27.09999 104.299968 27.09999 103.799968 27.09999 103.19997 27.09999 102.69997 27.09999 101.69997 27.09999 100.59997 27.09999 99.59997 26.99999L99 27C98.4 27 97.8 26.9 97.2 26.9 97.1 26.9 97.1 26.9 97 26.9 96.2 26.9 95.3 26.9 94.3 27 92.600009 27.1 91 27.3 89.3 27.4L88.600009 27.5C87.3 27.6 86.200008 27.7 85.100009 27.9 84.3 28.1 83.50001 28.199999 82.600009 28.4L82 28.7C81.5 28.800002 81.1 28.900002 80.6 29 79 29.3 77.299999 29.7 75.7 30.1 74 30.6 72.299999 31.1 70.6 31.6 70.299999 31.7 70.1 31.800002 69.799999 31.9 65.799999 33.2 62.699998 34.4 59.899995 35.8 58.099996 36.6 56.499994 37.5 54.999994 38.399999 54.59999 38.6 54.199995 38.899999 53.79999 39.1 53.39999 39.3 53.09999 39.5 52.699995 39.699998 51.899995 40.199998 51.199995 40.699998 50.499994 41.1L50.199995 41.3 50.499994 41.1C49.399995 41.8 48.399995 42.6 47.399995 43.3 46.899995 43.7 46.399995 44.1 45.899995 44.399999 44.399995 45.499998 42.899995 46.699998 41.299997 48.1 39.899995 49.3 38.599996 50.699998 37.099996 52.3 36.099996 53.3 34.899995 54.7 33.599996 56.1 32.599996 57.199998 31.599995 58.5 30.399994 60.1 29.699994 61 29.099995 61.899999 28.499995 62.8L28 63.9 27.8 64.200008C27.4 64.700008 27.099999 65.3 26.699999 65.8 26.3 66.4 25.999999 67.100009 25.599999 67.700008L25.5 68 25.2 68.5C24.800002 69.2 24.400002 70 24 70.8 23.9 70.9 23.9 71 23.8 71.200008 23.599999 71.600009 23.4 71.9 23.3 72.3V72.4C23.099999 72.9 22.8 73.4 22.5 73.9 21.9 75 21.4 76 20.9 77.200008 20.6 78.00001 20.4 78.8 20.1 79.50001 19.9 80.200008 19.7 80.80001 19.4 81.50001 19 82.50001 18.8 83.600009 18.5 84.600009L18.4 85C18.3 85.5 18.1 85.9 18 86.4 17.7 87.3 17.5 88.3 17.3 89.3 17.3 89.600009 17.199999 89.8 17.199999 90.100009 17.199999 90.3 17.099999 90.50001 17.099999 90.700008L17 90.9C16.9 91.200008 16.9 91.5 16.8 91.700008 16.5 93.00001 16.3 94.4 16.099999 95.8 16 96.4 16 97 16 97.6 16 97.799999 16 98 16 98.2V98.399997C16 98.49999 16 98.59999 16 98.799999 16 99.399997 16.1 99.899997 16.3 100.49999 16.4 100.799999 16.599999 101.09999 16.9 101.299999 17 101.399997 17 101.49999 17.1 101.49999 17.300002 101.69999 17.5 101.799999 17.7 101.99999 18.1 102.299999 18.5 102.399997 19 102.399997 19.2 102.399997 19.4 102.49999 19.6 102.59999 19.9 102.69999 20.1 102.79999 20.4 102.79999 21 102.89999 21.6 103.09999 22.199999 103.19999L22.599999 103.29999C22.899998 103.39999 23.3 103.499988 23.599999 103.499988 23.8 103.499988 23.899998 103.59998 24.099999 103.59998H24.3 24.5 24.7C24.800002 103.59998 25 103.69998 25.1 103.69998 25.6 103.79998 26 103.999988 26.5 103.999988 27.3 103.999988 28 103.79999 28.5 103.29999 28.9 102.89999 29.2 102.499988 29.3 101.89999 29.4 101.69999 29.5 101.499988 29.5 101.29999 29.6 100.59999 29.7 99.999988 29.8 99.29999 29.8 98.999988 29.9 98.69999 29.9 98.29999 30.1 97.29999 30.3 96.29999 30.6 95.09999 30.9 94.09999 31.1 92.99999 31.5 91.49999 31.8 90.299999 32.2 89.09999 32.6 87.99999 32.699998 87.69999 32.8 87.49999 32.899999 87.19999L33.399999 85.99999C33.899999 84.799999 34.399999 83.59999 34.899999 82.299999 35.199998 81.49999 35.6 80.7 35.999998 79.899997 36.399999 79.09999 36.899999 78.299999 37.299997 77.49999L37.499998 77.19999C38.299997 75.79999 39.199998 74.19999 40.099996 72.79999 40.3 72.5 40.6 71.9 41 71.3Z" fill="#e16f28"/>
</g>
</g>
</g>
</g>
</g>
<g clip-path="url(#clip_18)">
<g clip-path="url(#clip_19)">
<g clip-path="url(#clip_20)">
<g clip-path="url(#clip_21)">
<g clip-path="url(#clip_22)">
<path transform="matrix(.1638272,0,0,.1638272,79.10994,164.25157)" d="M0 0H256V256H0Z" fill="#ffffff"/>
</g>
</g>
</g>
</g>
</g>
<g clip-path="url(#clip_23)">
<g clip-path="url(#clip_24)">
<g clip-path="url(#clip_25)">
<g clip-path="url(#clip_26)">
<g clip-path="url(#clip_27)">
<path transform="matrix(.1638272,0,0,.1638272,164.57016,164.25157)" d="M0 0H256V256H0Z" fill="#ffffff"/>
</g>
</g>
</g>
</g>
</g>
</svg>
