<svg width="465" height="87" viewBox="0 0 465 87" fill="none" xmlns="http://www.w3.org/2000/svg">
<path d="M23.987 65.1558H18.427V46.7958H23.987C32.3603 46.7958 36.9736 49.3304 36.9736 56.4891C36.9736 62.6104 32.3603 65.1558 23.987 65.1558ZM18.427 14.7824H19.8403C27.5603 14.7824 31.6136 17.1424 31.6136 22.6891C31.6136 29.1958 27.467 31.5438 19.8403 31.5438H18.427V14.7824ZM39.0536 37.5704C45.6403 34.1838 48.747 28.0624 48.747 20.9038C48.747 6.12912 38.2003 1.14245 24.827 1.14245H0.733643V78.7958H30.2003C46.2936 78.7958 55.6136 69.9571 55.6136 57.1424C55.6136 44.6238 48.747 39.2638 39.0536 37.5704Z" fill="#E16F28"/>
<path d="M339.041 1.14274H383.48V16.6761H356.734V32.1027H382.346V47.6361H356.734V63.2627H383.48V78.7961H339.041V1.14274Z" fill="#E16F28"/>
<path d="M280.96 1.14274H325.867V16.6761H298.667V32.1027H323.8V47.6361H298.667V78.7961H280.96V1.14274Z" fill="#E16F28"/>
<path d="M464.8 1.14274L436.187 43.9694V78.7961H418.48V43.9694L389.867 1.14274H411.147L427.333 25.9961L443.52 1.14274H464.8Z" fill="#E16F28"/>
<path d="M183.387 75.3694C183.361 75.5574 183.321 75.7027 183.241 75.8627C183.214 75.9161 183.201 75.9441 183.187 75.9694L183.161 76.0227C183.134 76.0761 183.107 76.1294 183.081 76.1827C183.001 76.3427 182.934 76.5041 182.827 76.6494C182.587 76.9974 182.347 77.3307 182.094 77.6361C182.041 77.6761 182.001 77.7561 181.934 77.8227L181.881 77.8627C181.854 77.9161 181.814 77.9561 181.787 78.0094C181.747 78.0894 181.694 78.1294 181.654 78.2094C181.467 78.4507 181.281 78.6894 181.081 78.8907C180.987 79.0094 180.881 79.0894 180.787 79.2094L180.707 79.3027C180.507 79.5294 180.307 79.7961 180.067 79.9974C179.894 80.1427 179.761 80.2774 179.614 80.4361C179.441 80.5827 179.294 80.7694 179.107 80.9441C178.814 81.1961 178.547 81.3974 178.241 81.6107C178.094 81.7027 177.961 81.7961 177.841 81.9027L177.827 81.9294C177.747 82.0227 177.654 82.0761 177.547 82.1561C177.494 82.1961 177.481 82.2241 177.441 82.2361C177.227 82.3974 177.014 82.5574 176.814 82.6894L176.667 82.7841L176.614 82.8494C176.427 82.9561 176.254 83.1027 176.067 83.1961C175.894 83.2774 175.734 83.3974 175.561 83.4761L175.467 83.5294L175.201 83.7561C174.921 83.9161 174.641 84.0761 174.334 84.2241C173.814 84.4894 173.374 84.7027 172.961 84.8627C172.427 85.0641 171.934 85.2774 171.534 85.4094C170.921 85.6361 170.401 85.8374 169.867 85.9694C169.254 86.1294 168.707 86.2494 168.161 86.3427C167.987 86.3561 167.801 86.3974 167.614 86.4361C167.294 86.5041 166.961 86.5694 166.614 86.6107L166.507 86.6227C166.267 86.6361 166.014 86.6761 165.747 86.7027C165.614 86.7027 165.507 86.7161 165.374 86.7161C165.241 86.7161 165.094 86.7427 164.961 86.7427C164.441 86.7841 163.907 86.8094 163.321 86.7841C162.401 86.7841 161.414 86.7027 160.187 86.5161C160.094 86.5041 160.027 86.5041 159.934 86.4894C159.414 86.3974 158.894 86.3027 158.387 86.2241C157.907 86.1174 157.401 85.9974 156.934 85.8627C156.801 85.8227 156.681 85.7961 156.534 85.7561H156.334C156.067 85.6894 155.841 85.6107 155.601 85.5694C155.281 85.4761 154.974 85.3561 154.627 85.2094L154.427 85.1427C153.961 84.9441 153.507 84.7841 153.041 84.5961C152.774 84.4894 152.534 84.3694 152.321 84.2627L152.267 84.2361C152.107 84.1561 151.961 84.0494 151.801 83.9694L151.641 83.8907C151.387 83.7427 151.094 83.5961 150.827 83.4627C150.707 83.3974 150.547 83.3161 150.414 83.2494C149.987 83.0361 149.561 82.7561 149.147 82.5294L149.067 82.4894C148.707 82.2774 148.374 82.0361 148.054 81.8094C147.934 81.7161 147.774 81.6361 147.654 81.5574L147.507 81.4507C147.041 81.1174 146.534 80.7961 146.107 80.3974C145.894 80.1827 145.667 79.9694 145.427 79.7841C145.241 79.6227 145.054 79.4627 144.867 79.3027C144.654 79.1427 144.427 78.9294 144.227 78.7307L143.747 78.2894C143.707 78.2361 143.654 78.2094 143.614 78.1561C143.521 78.0761 143.414 77.9974 143.307 77.8761L143.174 77.7427C143.094 77.6361 142.987 77.5161 142.894 77.4361C142.814 77.3307 142.681 77.1961 142.574 77.0761C142.467 76.9561 142.374 76.8094 142.267 76.7027L142.214 76.6107C142.107 76.4894 142.027 76.3827 142.001 76.2361L141.974 76.0894C141.867 75.7694 141.934 75.4361 142.161 75.2494C142.281 75.1427 142.374 75.0641 142.454 74.9694C142.534 74.8761 142.614 74.7961 142.721 74.7161L142.827 74.6361C142.907 74.5427 143.027 74.4361 143.147 74.3307C143.414 74.0641 143.654 73.8227 143.894 73.6107C143.961 73.5427 144.054 73.4894 144.134 73.4627C144.374 73.2494 144.774 73.1827 145.067 73.3307C145.121 73.3561 145.174 73.3827 145.201 73.4361L145.294 73.5161C145.427 73.6494 145.601 73.7561 145.734 73.8907C145.961 74.1027 146.214 74.3307 146.427 74.5694C146.494 74.6361 146.561 74.7027 146.627 74.7694C146.787 74.9161 146.934 75.0761 147.121 75.2361C147.401 75.4761 147.627 75.6894 147.867 75.8761C148.107 76.1027 148.374 76.2894 148.614 76.4761L148.734 76.5694L148.921 76.7307C149.134 76.9027 149.347 77.0761 149.574 77.2241C149.721 77.3307 149.881 77.3974 150.027 77.5041C150.121 77.5827 150.254 77.6494 150.361 77.7427C150.454 77.8227 150.587 77.8907 150.681 77.9694C150.827 78.0761 151.001 78.1961 151.147 78.3027C151.334 78.3974 151.481 78.4894 151.667 78.5827L151.774 78.6361C151.881 78.6894 151.947 78.7561 152.054 78.8094C152.214 78.8907 152.361 78.9974 152.521 79.0761C153.027 79.3694 153.534 79.6107 154.014 79.8494L154.121 79.9027C154.747 80.2241 155.321 80.4761 155.854 80.6641C155.987 80.7307 156.161 80.7841 156.294 80.8494C156.401 80.9027 156.547 80.9441 156.654 80.9974C156.921 81.1027 157.241 81.1961 157.494 81.2894L157.521 81.3027C157.721 81.3694 157.947 81.4361 158.161 81.4761C158.427 81.5427 158.667 81.5961 158.894 81.6494L159.267 81.7027C159.481 81.7427 159.721 81.7961 159.961 81.8494C160.147 81.8761 160.334 81.9027 160.521 81.9294C160.641 81.9294 160.734 81.9441 160.854 81.9561C161.107 81.9827 161.321 82.0227 161.561 82.0761C161.894 82.1427 162.267 82.1961 162.627 82.2494C163.134 82.3027 163.681 82.3427 164.201 82.3694C164.427 82.3427 164.694 82.3427 164.974 82.3161C165.121 82.2894 165.254 82.2894 165.387 82.2894C165.521 82.2894 165.627 82.2774 165.761 82.2774C166.027 82.2494 166.307 82.2241 166.521 82.1961C166.761 82.1827 166.987 82.1294 167.174 82.0894L167.627 81.9827C167.987 81.9027 168.401 81.8094 168.801 81.6761C169.214 81.5574 169.667 81.3827 170.041 81.2361C170.494 81.0641 170.867 80.8907 171.241 80.7427H171.307C171.614 80.5961 171.947 80.4627 172.241 80.3161C172.481 80.1707 172.761 80.0094 173.001 79.8627C173.187 79.7561 173.347 79.6361 173.441 79.5827C173.854 79.3307 174.307 79.0227 174.707 78.7561L174.801 78.7027C175.014 78.5427 175.241 78.3974 175.454 78.2361C175.667 78.0894 175.881 77.9294 176.067 77.7561C176.374 77.4761 176.654 77.2241 176.947 76.9694L177.241 76.7161C177.307 76.6494 177.361 76.6107 177.427 76.5427C177.681 76.3027 177.934 76.0361 178.174 75.7561C178.481 75.4094 178.681 75.1561 178.894 74.9294C179.121 74.6494 179.307 74.4094 179.494 74.1707C179.547 74.0641 179.614 73.9974 179.654 73.9161C179.774 73.7427 179.881 73.5961 180.001 73.4227C180.027 73.3694 180.081 73.3307 180.121 73.2894C180.227 73.1427 180.361 73.0761 180.521 73.0227C180.721 72.9561 180.934 72.9974 181.147 73.1027C181.281 73.1707 181.361 73.2774 181.481 73.3694C181.507 73.3827 181.547 73.4361 181.574 73.4507L181.627 73.4761L181.681 73.5041L181.734 73.5294C181.787 73.5574 181.801 73.5961 181.854 73.6227C181.934 73.6641 182.014 73.7427 182.081 73.8094L182.174 73.8907C182.321 73.9827 182.454 74.1174 182.601 74.2241C182.681 74.2627 182.721 74.3161 182.787 74.3827C182.827 74.4361 182.867 74.4894 182.921 74.5161C183.054 74.5827 183.147 74.6641 183.214 74.7961C183.241 74.8761 183.281 74.9294 183.307 75.0094C183.334 75.0227 183.321 75.0494 183.334 75.0894C183.387 75.1827 183.401 75.2774 183.387 75.3694Z" fill="#E16F28"/>
<path d="M109.174 66.8759C94.2671 66.8759 82.1337 54.7559 82.1337 39.8492C82.1337 24.9426 94.2671 12.8092 109.174 12.8092C124.067 12.8092 136.2 24.9426 136.2 39.8492C136.2 54.7559 124.067 66.8759 109.174 66.8759ZM109.174 0.0105842C87.1737 0.0105842 69.3337 17.8492 69.3337 39.8492C69.3337 61.8492 87.1737 79.6772 109.174 79.6772C131.16 79.6772 149 61.8492 149 39.8492C149 17.8492 131.16 0.0105842 109.174 0.0105842Z" fill="#E16F28"/>
<path d="M218.507 66.8759C203.6 66.8759 191.467 54.7559 191.467 39.8492C191.467 24.9426 203.6 12.8092 218.507 12.8092C233.4 12.8092 245.534 24.9426 245.534 39.8492C245.534 54.7559 233.4 66.8759 218.507 66.8759ZM218.507 0.0105842C196.507 0.0105842 178.667 17.8492 178.667 39.8492C178.667 61.8492 196.507 79.6772 218.507 79.6772C240.494 79.6772 258.334 61.8492 258.334 39.8492C258.334 17.8492 240.494 0.0105842 218.507 0.0105842Z" fill="#E16F28"/>
</svg>
